<svg width="329" height="324" viewBox="0 0 329 324" fill="none" xmlns="http://www.w3.org/2000/svg">
<path d="M56.5554 293.488L189.658 322.276C203.747 325.323 218.461 323.196 231.111 316.285L260 300.5L283.175 290.341C291.931 286.503 299.644 280.627 305.67 273.204L314.776 261.986C325.135 249.225 329.806 232.772 327.696 216.471L316.02 126.249C315.017 118.491 312.505 111.005 308.628 104.211L274.615 44.6103C265.398 28.4593 249.213 17.4949 230.796 14.925L128.963 0.71582C104.3 -2.72552 80.0753 9.4248 68.0849 31.2499L8.36923 139.946C2.27921 151.031 -0.152008 163.757 1.42282 176.307L9.70615 242.315C12.8776 267.587 31.6601 288.103 56.5554 293.488Z" fill="white"/>
<path d="M56.5554 293.488L189.658 322.276C203.747 325.323 218.461 323.196 231.111 316.285L260 300.5L283.175 290.341C291.931 286.503 299.644 280.627 305.67 273.204L314.776 261.986C325.135 249.225 329.806 232.772 327.696 216.471L316.02 126.249C315.017 118.491 312.505 111.005 308.628 104.211L274.615 44.6103C265.398 28.4593 249.213 17.4949 230.796 14.925L128.963 0.71582C104.3 -2.72552 80.0753 9.4248 68.0849 31.2499L8.36923 139.946C2.27921 151.031 -0.152008 163.757 1.42282 176.307L9.70615 242.315C12.8776 267.587 31.6601 288.103 56.5554 293.488Z" stroke="black"/>
<g clip-path="url(#clip0_0_1)">
<path d="M286.721 161.583C286.791 160.508 284.266 159.983 284.381 159.042C284.495 158.105 287.042 158.299 289.733 156.606C290.219 156.301 293.278 154.376 292.98 152.932C292.414 150.196 280.285 151.593 279.104 147.611C278.845 146.738 279.086 145.512 278.371 142.766C278.087 141.673 277.851 141.107 277.369 140.928C276.685 140.674 276.104 141.423 274.425 142.53C271.908 144.19 271.448 143.67 269.641 145.133C268.3 146.219 267.85 147.075 267.266 146.903C266.44 146.658 266.809 144.786 265.863 144.329C264.897 143.863 263.214 145.185 262.183 146.331C260.247 148.483 260.047 150.64 259.403 152.612C258.704 154.754 257.155 157.681 253.312 160.694L218.23 186.208C225.615 181.1 246.268 167.377 254.314 162.532C256.637 161.134 259.076 159.772 261.74 160.398C264.304 161.001 266.766 163.374 270.9 164.948C271.383 165.132 272.733 165.627 273.341 165.05C273.844 164.573 273.381 163.798 273.844 163.346C274.465 162.74 275.801 163.641 277.991 163.95C279.535 164.168 280.718 163.98 281.736 163.819C282.043 163.77 286.627 163.014 286.721 161.583L286.721 161.583Z" fill="#F2F2F2"/>
<path d="M227.445 147.09C226.938 146.746 225.951 147.832 225.522 147.504C225.095 147.178 225.925 145.985 225.87 144.177C225.86 143.851 225.797 141.795 225.002 141.525C223.494 141.013 220.681 147.364 218.385 146.794C217.881 146.669 217.348 146.197 215.793 145.755C215.174 145.579 214.828 145.532 214.601 145.716C214.279 145.978 214.479 146.48 214.538 147.622C214.627 149.336 214.239 149.411 214.437 150.719C214.583 151.69 214.874 152.158 214.621 152.395C214.262 152.729 213.449 152.008 212.951 152.34C212.444 152.679 212.608 153.886 212.873 154.723C213.372 156.293 214.374 157.013 215.156 157.898C216.007 158.859 216.998 160.463 217.369 163.217L219.781 187.782C219.402 182.686 218.62 168.599 218.561 163.256C218.545 161.713 218.58 160.124 219.656 158.999C220.692 157.915 222.568 157.392 224.534 155.819C224.763 155.636 225.396 155.116 225.288 154.651C225.199 154.267 224.685 154.271 224.596 153.913C224.477 153.434 225.306 153.039 226.089 152.054C226.642 151.36 226.891 150.725 227.106 150.179C227.17 150.015 228.121 147.549 227.445 147.09L227.445 147.09V147.09Z" fill="#F2F2F2"/>
<path d="M235.997 156.272L237.558 153.341L237.838 153.23C239.138 152.717 240.105 152.011 240.716 151.129C240.813 150.989 240.902 150.843 240.994 150.696C241.357 150.11 241.808 149.382 242.74 148.811C243.261 148.494 244.569 147.829 245.351 148.557C245.563 148.75 245.667 148.98 245.716 149.198C245.757 149.18 245.799 149.163 245.844 149.143C246.399 148.915 246.736 148.885 247.06 148.856C247.31 148.833 247.567 148.81 248.045 148.666C248.254 148.603 248.427 148.54 248.572 148.487C249.013 148.327 249.565 148.154 250.08 148.516C250.617 148.922 250.593 149.58 250.578 150.015C250.551 150.792 250.439 151.289 250.365 151.619C250.337 151.739 250.307 151.875 250.306 151.923C250.305 152.308 251.928 153.057 252.537 153.343C253.908 153.98 255.094 154.531 255.001 155.607C254.936 156.376 254.199 156.95 252.752 157.356C252.302 157.482 251.884 157.526 251.529 157.542C251.644 157.79 251.696 158.086 251.575 158.413C251.289 159.186 250.268 159.459 248.54 159.227C248.11 159.17 247.533 159.092 246.86 158.784C246.543 158.638 246.28 158.476 246.057 158.333C245.966 158.456 245.843 158.572 245.669 158.66C245.16 158.92 244.555 158.796 243.88 158.264C243.129 157.69 242.59 157.103 242.113 156.586C241.697 156.135 241.337 155.748 240.988 155.541C240.334 155.167 239.517 155.336 238.516 155.595L235.997 156.272L235.997 156.272Z" fill="#F2F2F2"/>
<path d="M248.522 141.034L245.289 140.269L245.11 140.026C244.284 138.9 243.354 138.145 242.346 137.778C242.186 137.72 242.022 137.67 241.856 137.619C241.197 137.417 240.377 137.166 239.588 136.41C239.149 135.987 238.173 134.891 238.68 133.951C238.814 133.696 239.009 133.538 239.208 133.436C239.181 133.401 239.153 133.364 239.123 133.326C238.761 132.847 238.646 132.529 238.536 132.223C238.451 131.988 238.363 131.745 238.103 131.32C237.988 131.134 237.883 130.983 237.795 130.855C237.529 130.47 237.221 129.981 237.441 129.391C237.698 128.769 238.341 128.625 238.766 128.53C239.525 128.359 240.035 128.341 240.373 128.329C240.496 128.325 240.635 128.32 240.682 128.308C241.055 128.212 241.369 126.453 241.491 125.792C241.76 124.306 241.993 123.019 243.057 122.836C243.819 122.704 244.561 123.27 245.321 124.566C245.558 124.97 245.706 125.362 245.812 125.701C246.023 125.527 246.297 125.402 246.644 125.436C247.465 125.516 247.988 126.434 248.201 128.163C248.255 128.592 248.326 129.17 248.198 129.899C248.138 130.242 248.047 130.537 247.965 130.789C248.108 130.846 248.252 130.935 248.381 131.081C248.761 131.507 248.794 132.123 248.451 132.911C248.086 133.782 247.654 134.452 247.275 135.044C246.944 135.561 246.66 136.006 246.549 136.396C246.353 137.123 246.723 137.87 247.228 138.772L248.522 141.034L248.522 141.034V141.034Z" fill="#F2F2F2"/>
<path d="M252.603 132.047L254.164 129.116L254.444 129.005C255.744 128.493 256.711 127.786 257.322 126.904C257.419 126.764 257.508 126.619 257.6 126.471C257.963 125.885 258.414 125.157 259.346 124.586C259.867 124.269 261.175 123.604 261.957 124.332C262.169 124.526 262.273 124.755 262.322 124.974C262.363 124.956 262.405 124.938 262.45 124.919C263.005 124.69 263.342 124.66 263.666 124.631C263.916 124.609 264.173 124.586 264.651 124.442C264.86 124.378 265.033 124.315 265.178 124.262C265.619 124.102 266.171 123.929 266.686 124.292C267.223 124.698 267.199 125.355 267.184 125.791C267.157 126.568 267.045 127.065 266.971 127.394C266.943 127.515 266.913 127.65 266.912 127.698C266.911 128.083 268.534 128.833 269.143 129.118C270.514 129.755 271.7 130.306 271.607 131.382C271.542 132.152 270.805 132.725 269.358 133.131C268.908 133.257 268.49 133.301 268.135 133.317C268.25 133.566 268.302 133.862 268.181 134.189C267.895 134.962 266.874 135.235 265.146 135.002C264.716 134.946 264.139 134.867 263.466 134.559C263.149 134.414 262.886 134.251 262.663 134.108C262.572 134.231 262.449 134.348 262.275 134.436C261.766 134.695 261.161 134.571 260.486 134.039C259.735 133.466 259.196 132.878 258.719 132.361C258.303 131.91 257.943 131.523 257.594 131.317C256.94 130.943 256.123 131.111 255.122 131.371L252.603 132.047V132.047H252.603Z" fill="#F2F2F2"/>
<path d="M219.173 186.788L218.847 186.04L219.16 185.287L218.847 186.04L218.129 185.661C218.161 185.592 218.222 185.425 218.32 185.165C218.856 183.745 220.487 179.419 223.727 173.068C225.99 168.635 228.56 164.244 231.367 160.016C234.179 155.781 236.554 152.743 238.462 150.301C239.901 148.459 241.303 146.727 242.67 145.04C246.32 140.533 249.767 136.275 252.918 131.106C253.621 129.952 255.085 127.55 255.421 124.157C255.615 122.19 255.403 120.179 254.788 118.183L256.35 117.703C257.027 119.908 257.261 122.134 257.045 124.319C256.673 128.081 255.078 130.698 254.312 131.956C251.106 137.216 247.625 141.515 243.939 146.065C242.578 147.746 241.182 149.471 239.748 151.305C237.858 153.724 235.505 156.736 232.729 160.917C229.954 165.094 227.416 169.431 225.181 173.808C221.982 180.08 220.376 184.341 219.848 185.74C219.566 186.488 219.507 186.644 219.173 186.788V186.788V186.788Z" fill="#F2F2F2"/>
<path d="M250.852 118.631C250.797 118.593 250.742 118.554 250.688 118.511C249.583 117.664 248.991 116.251 248.928 114.312C248.899 113.4 249.147 112.552 249.64 110.86C249.715 110.599 250.114 109.285 250.925 107.656C251.454 106.592 251.75 106.197 252.189 105.97C252.676 105.717 253.213 105.675 253.731 105.754C253.803 105.613 253.907 105.49 254.056 105.393C254.67 104.989 255.23 105.48 255.536 105.741C255.689 105.877 255.878 106.047 256.111 106.189C256.477 106.414 256.739 106.439 257.135 106.478C257.514 106.516 257.986 106.562 258.566 106.807C259.711 107.283 260.356 108.142 260.569 108.425C261.694 109.907 261.636 111.53 261.569 113.409C261.555 113.785 261.468 115.131 260.944 116.7C260.567 117.832 260.24 118.226 259.944 118.483C259.338 119.012 258.694 119.113 257.144 119.245C255.523 119.385 254.71 119.454 254.085 119.407C252.633 119.295 251.72 119.225 250.852 118.631L250.852 118.631V118.631Z" fill="#F2F2F2"/>
<path d="M244.416 81H152.892C149.535 81 146.805 83.7277 146.805 87.0822V181.404C146.805 184.758 149.535 187.486 152.892 187.486H244.416C247.773 187.486 250.503 184.758 250.503 181.404V87.0822C250.503 83.7277 247.773 81 244.416 81ZM249.863 181.404C249.863 184.41 247.424 186.847 244.416 186.847H152.892C149.884 186.847 147.445 184.41 147.445 181.404V87.0822C147.445 84.0763 149.884 81.6396 152.892 81.6396H201.372C228.153 81.6396 249.863 103.331 249.863 130.088V181.404Z" fill="#3F3D56"/>
<path d="M144.868 151.89C141.66 152.756 139.507 155.112 140.059 157.152C140.612 159.191 143.659 160.142 146.868 159.275C148.155 158.946 149.344 158.314 150.336 157.432L163.881 153.59L161.941 147.278L148.794 151.736C147.492 151.473 146.145 151.526 144.868 151.89Z" fill="#FFB6B6"/>
<path d="M201.631 132.952C201.631 132.952 205.455 138.557 196.836 142.785C188.217 147.013 172.286 153.048 172.286 153.048L150.288 158.14L146.966 150.863L173.068 143.758L194.338 131.898L201.631 132.952H201.631Z" fill="#3F3D56"/>
<path d="M199.072 118.033C198.974 120.69 200.889 123.844 202.913 123.908C205.348 123.986 216.859 124.805 217.229 123.851C219.798 117.228 207.698 103.49 204.97 103.094C203.505 102.881 201.75 104.983 201.075 106.719C200.129 109.151 201.525 110.298 200.737 113.575C200.136 116.074 199.14 116.175 199.072 118.033Z" fill="#2F2E41"/>
<path d="M179.035 222.771L170.956 224.62L179.074 248.687L184.549 247.434L179.035 222.771Z" fill="#FFB6B6"/>
<path d="M176.148 241.182L179.273 241.64L179.755 243.312C179.755 243.312 179.859 241.185 183.31 239.727L184.207 241.224C184.207 241.224 186.054 242.411 186.651 245.355L187.977 253.318L185.264 254.037L183.273 248.806C183.273 248.806 182.178 247.805 180.436 254.573C180.436 254.573 179.73 256.848 173.329 256.584C172.449 256.548 171.675 255.962 171.44 255.114C171.311 254.646 171.368 254.162 171.908 253.838C173.284 253.013 174.883 253.09 175.5 251.623C176.117 250.157 176.148 241.182 176.148 241.182Z" fill="#2F2E41"/>
<path d="M196.587 233.712L189.372 233.534L190.382 258.876L195.998 258.976L196.587 233.712Z" fill="#FFB6B6"/>
<path d="M189.35 250.888L192.273 252.084L192.338 253.823C192.338 253.823 192.951 251.783 196.652 251.198L197.162 252.867C197.162 252.867 198.669 254.464 198.54 257.465L197.908 265.512L195.102 265.558L194.43 260.001C194.43 260.001 193.607 258.767 190.286 264.917C190.286 264.917 189.053 266.955 182.904 265.16C182.059 264.914 181.449 264.158 181.425 263.279C181.412 262.793 181.584 262.338 182.187 262.153C183.72 261.683 185.254 262.142 186.206 260.867C187.158 259.592 189.35 250.888 189.35 250.888Z" fill="#2F2E41"/>
<path d="M211.474 206.032L173.319 203.082L184.056 159.103L209.746 155.405L211.474 206.032Z" fill="#2F2E41"/>
<path d="M206.212 125.191L214.251 120.912L220.743 128.57L207.698 170.346L183.835 159.789L201.959 128.83L206.212 125.191Z" fill="#6C63FF"/>
<path d="M207.231 162.803C207.231 162.803 209.791 175.992 201.863 182.847L199.437 190.555L196.817 204.782L197.054 241.529L187.452 240.569L183.611 205.395L183.566 187.889L169.391 200.017L184.226 229.129L172.138 234.418L157.374 199.335C156.348 197.198 156.622 194.665 158.08 192.796L183.835 159.789L207.231 162.803Z" fill="#2F2E41"/>
<path d="M217.184 124.372L201.422 139.064C197.691 169.309 199.728 197.08 210.461 221.123L236.948 208.857C215.107 202.239 217.249 165.897 221.487 126.958L217.184 124.372Z" fill="#3F3D56"/>
<path d="M203.591 128.878L206.015 125.129L192.604 133.007L182 162.37L201.562 137.978L203.591 128.878Z" fill="#3F3D56"/>
<path d="M237.138 184.108C238.062 187.297 240.458 189.406 242.489 188.817C244.52 188.229 245.417 185.168 244.492 181.978C244.14 180.698 243.487 179.522 242.586 178.547L238.499 165.084L232.217 167.135L236.913 180.189C236.673 181.495 236.75 182.838 237.138 184.108Z" fill="#FFB6B6"/>
<path d="M216.572 127.272C216.572 127.272 222.069 123.291 226.547 131.777C231.025 140.264 237.521 156.001 237.521 156.001L243.247 177.825L236.062 181.351L228.204 155.487L215.727 134.585L216.572 127.272Z" fill="#3F3D56"/>
<path d="M210.034 120.567C214.965 120.567 218.963 116.574 218.963 111.647C218.963 106.72 214.965 102.727 210.034 102.727C205.103 102.727 201.106 106.72 201.106 111.647C201.106 116.574 205.103 120.567 210.034 120.567Z" fill="#FFB6B6"/>
<path d="M210.064 108.167C209.561 108.117 209.303 108.648 207.384 109.389C206.704 109.651 206.356 109.783 205.956 109.809C204.742 109.887 203.799 109.217 203.168 108.769C202.143 108.041 201.483 107.572 201.354 106.823C201.185 105.845 202.294 104.752 204.517 102.607C205.606 101.556 206.269 100.922 207.335 100.167C209.121 98.8997 210.015 98.2662 211.267 98.1419C212.926 97.9773 214.188 98.7683 216.007 99.9095C216.499 100.218 217.208 100.366 217.959 100.423C220.419 100.608 222.528 102.246 223.197 104.618C223.248 104.799 223.291 104.964 223.323 105.104C224.644 110.864 224.276 116.856 222.468 122.483C222.42 122.634 222.379 122.775 222.348 122.904C221.508 126.331 209.975 127.667 208.626 124.77C207.777 122.945 211.747 121.12 212.34 115.68C212.752 111.894 211.317 108.29 210.064 108.167V108.167Z" fill="#2F2E41"/>
<path d="M175.29 110.181H78.5523V110.676H175.29V110.181Z" fill="#E6E6E6"/>
<path d="M161.633 102.937H92.2092C91.1155 102.937 90.2257 102.048 90.2257 100.955C90.2257 99.8623 91.1155 98.9733 92.2092 98.9733H161.633C162.727 98.9733 163.617 99.8623 163.617 100.955C163.617 102.048 162.727 102.937 161.633 102.937Z" fill="#E6E6E6"/>
<path d="M78.7667 114.124C81.0646 114.124 82.9274 112.262 82.9274 109.966C82.9274 107.671 81.0646 105.809 78.7667 105.809C76.4688 105.809 74.606 107.671 74.606 109.966C74.606 112.262 76.4688 114.124 78.7667 114.124Z" fill="#E6E6E6"/>
<path d="M91.569 105.17C93.8669 105.17 95.7297 103.309 95.7297 101.013C95.7297 98.7168 93.8669 96.8556 91.569 96.8556C89.2711 96.8556 87.4082 98.7168 87.4082 101.013C87.4082 103.309 89.2711 105.17 91.569 105.17Z" fill="#E6E6E6"/>
<path d="M142.644 156.549H45.9065V157.044H142.644V156.549Z" fill="#3F3D56"/>
<path d="M128.987 149.305H59.5634C58.4697 149.305 57.5799 148.416 57.5799 147.323C57.5799 146.23 58.4697 145.341 59.5634 145.341H128.987C130.081 145.341 130.971 146.23 130.971 147.323C130.971 148.416 130.081 149.305 128.987 149.305Z" fill="#6C63FF"/>
<path d="M45.1607 160.491C47.4586 160.491 49.3215 158.63 49.3215 156.334C49.3215 154.038 47.4586 152.177 45.1607 152.177C42.8628 152.177 41 154.038 41 156.334C41 158.63 42.8628 160.491 45.1607 160.491Z" fill="#6C63FF"/>
<path d="M57.963 151.538C60.2609 151.538 62.1237 149.676 62.1237 147.381C62.1237 145.085 60.2609 143.223 57.963 143.223C55.6651 143.223 53.8023 145.085 53.8023 147.381C53.8023 149.676 55.6651 151.538 57.963 151.538Z" fill="#6C63FF"/>
<path d="M154.166 207.713H57.4285V208.209H154.166V207.713Z" fill="#E6E6E6"/>
<path d="M140.509 200.469H71.0855C69.9918 200.469 69.1019 199.58 69.1019 198.487C69.1019 197.395 69.9918 196.506 71.0855 196.506H140.509C141.603 196.506 142.493 197.395 142.493 198.487C142.493 199.58 141.603 200.469 140.509 200.469Z" fill="#E6E6E6"/>
<path d="M69.165 202.382C71.4629 202.382 73.3257 200.521 73.3257 198.225C73.3257 195.929 71.4629 194.068 69.165 194.068C66.8671 194.068 65.0042 195.929 65.0042 198.225C65.0042 200.521 66.8671 202.382 69.165 202.382Z" fill="#E6E6E6"/>
<path d="M56.6828 211.976C58.9807 211.976 60.8435 210.115 60.8435 207.819C60.8435 205.523 58.9807 203.661 56.6828 203.661C54.3849 203.661 52.522 205.523 52.522 207.819C52.522 210.115 54.3849 211.976 56.6828 211.976Z" fill="#E6E6E6"/>
</g>
<defs>
<clipPath id="clip0_0_1">
<rect width="252" height="184.899" fill="white" transform="translate(41 81)"/>
</clipPath>
</defs>
</svg>
