<svg width="329" height="288" viewBox="0 0 329 288" fill="none" xmlns="http://www.w3.org/2000/svg">
<path d="M272.445 30.5122L139.342 1.72413C125.253 -1.32304 110.539 0.803629 97.8892 7.71517L69 23.5L45.8253 33.6588C37.0686 37.4973 29.3561 43.3729 23.3303 50.796L14.224 62.0139C3.8646 74.7755 -0.805755 91.2283 1.3038 107.529L12.9795 197.751C13.9835 205.509 16.4948 212.995 20.372 219.789L54.3847 279.39C63.6018 295.541 79.7867 306.505 98.2043 309.075L200.037 323.284C224.7 326.726 248.925 314.575 260.915 292.75L320.631 184.054C326.721 172.969 329.152 160.243 327.577 147.693L319.294 81.6854C316.122 56.4127 297.34 35.8967 272.445 30.5122Z" fill="white"/>
<path d="M272.445 30.5122L139.342 1.72413C125.253 -1.32304 110.539 0.803629 97.8892 7.71517L69 23.5L45.8253 33.6588C37.0686 37.4973 29.3561 43.3729 23.3303 50.796L14.224 62.0139C3.8646 74.7755 -0.805755 91.2283 1.3038 107.529L12.9795 197.751C13.9835 205.509 16.4948 212.995 20.372 219.789L54.3847 279.39C63.6018 295.541 79.7867 306.505 98.2043 309.075L200.037 323.284C224.7 326.726 248.925 314.575 260.915 292.75L320.631 184.054C326.721 172.969 329.152 160.243 327.577 147.693L319.294 81.6854C316.122 56.4127 297.34 35.8967 272.445 30.5122Z" stroke="black"/>
<g clip-path="url(#clip0_0_1)">
<path d="M267.159 241.043C258.902 247.331 248.843 253.7 238.953 256.703C236.102 257.595 233.16 258.164 230.183 258.4C227.399 258.624 224.597 258.407 221.881 257.756C214.743 255.981 208.123 252.872 201.717 249.239C199.624 248.051 197.555 246.808 195.499 245.537C192.142 243.463 188.818 241.315 185.485 239.219C184.986 238.902 184.49 238.59 183.991 238.282H183.988C183.183 237.777 182.377 237.279 181.568 236.788C181.426 236.7 181.284 236.615 181.139 236.528C179.611 235.602 178.058 234.698 176.478 233.815C176.285 233.709 176.091 233.6 175.897 233.494C172.841 231.799 169.7 230.261 166.486 228.888C164.374 227.999 162.236 227.197 160.077 226.514H160.074C159.248 226.254 158.419 226.009 157.588 225.785C155.094 225.101 152.552 224.603 149.984 224.297C146.446 223.869 142.867 223.897 139.335 224.382C139.097 224.415 138.861 224.448 138.622 224.487C129.065 226.018 120.342 231.177 110.743 232.393C110.431 232.433 110.123 232.469 109.811 232.496C109.678 232.508 109.545 232.523 109.412 232.532C106.622 232.771 103.815 232.702 101.04 232.327C93.2889 231.304 85.74 228.132 78.9442 224.134C63.057 214.785 50.173 200.416 42.3398 183.776C40.9947 180.924 39.8004 178.004 38.762 175.026C35.8585 166.771 34.2596 158.113 34.0227 149.364C33.2878 119.011 50.536 88.5587 77.6165 74.8309C104.7 61.1031 140.327 65.6428 162.17 86.7319C175.42 99.5252 183.086 116.861 193.058 132.349C203.029 147.834 217.202 162.626 235.481 164.883C244.793 166.032 254.538 163.809 263.463 166.7C268.405 168.303 272.621 171.37 276.017 175.277C278.301 177.929 280.212 180.88 281.697 184.048C282.786 186.339 283.669 188.721 284.337 191.168C284.462 191.618 284.576 192.069 284.688 192.52C289.134 210.678 282.03 229.714 267.159 241.043Z" fill="#F2F2F2"/>
<path d="M118.431 208.171H90.0013C85.7419 208.171 82.2891 211.624 82.2891 215.883V215.883C82.2891 220.142 85.7419 223.595 90.0013 223.595H118.431C122.69 223.595 126.143 220.142 126.143 215.883C126.143 211.624 122.69 208.171 118.431 208.171Z" fill="#3F3D56"/>
<path d="M109.811 219.664V232.496C106.891 232.779 103.948 232.722 101.04 232.327V219.664H109.811Z" fill="#3F3D56"/>
<path d="M139.335 224.382C139.096 224.415 138.861 224.448 138.622 224.487C129.064 226.018 120.342 231.177 110.743 232.393C110.431 232.433 110.123 232.469 109.811 232.496C109.678 232.508 109.545 232.523 109.412 232.532C107.068 230.237 104.724 227.793 102.522 225.262C101.328 223.892 100.172 222.494 99.0866 221.079C96.2678 217.425 93.8786 213.669 92.2998 209.979C92.4601 208.21 91.3592 204.118 90.833 200.985L90.83 200.982C90.6062 199.666 90.4852 198.523 90.5971 197.788C91.2383 193.548 94.7012 194.035 95.7658 189.879C96.7261 189.082 97.7486 188.363 98.8235 187.729C99.0019 187.623 99.1834 187.517 99.3709 187.411L110.924 179.427L115.34 183.758L122.06 190.351L129.343 197.492L123.161 203.737C123.161 203.737 128.327 209.692 134.366 217.631C135.987 219.763 137.672 222.041 139.335 224.382Z" fill="#2F2E41"/>
<path d="M238.953 219.664V256.703C236.102 257.595 233.16 258.164 230.182 258.4V219.664H238.953Z" fill="#3F3D56"/>
<path d="M250.295 216.639H221.865C217.606 216.639 214.153 220.092 214.153 224.351V224.351C214.153 228.611 217.606 232.064 221.865 232.064H250.295C254.554 232.064 258.007 228.611 258.007 224.351C258.007 220.092 254.554 216.639 250.295 216.639Z" fill="#3F3D56"/>
<path d="M181.139 236.528C179.611 235.602 178.058 234.698 176.478 233.815C176.285 233.709 176.091 233.6 175.897 233.494L176.938 233.05L179.744 231.843L179.772 231.831L179.802 231.934L181.139 236.528Z" fill="#FFB6B6"/>
<path d="M185.485 239.219C184.986 238.902 184.49 238.59 183.991 238.282H183.988C183.183 237.777 182.377 237.279 181.568 236.788C181.426 236.7 181.284 236.615 181.139 236.528C179.611 235.602 178.058 234.698 176.478 233.815C176.284 233.709 176.091 233.6 175.897 233.494C172.841 231.799 169.699 230.261 166.485 228.888C164.374 227.999 162.236 227.197 160.077 226.514H160.074L158.377 223.674L150.74 210.884L149.062 208.074C149.062 208.074 143.337 209.768 135.234 211.392C132.285 211.985 129.025 212.565 125.605 213.055C121.948 213.575 118.113 213.99 114.302 214.189C112.485 214.286 110.673 214.335 108.889 214.319C104.276 214.289 99.8457 213.857 95.9654 212.828C94.671 211.613 90.7695 209.958 87.9749 208.443H87.9719C86.7984 207.808 85.8246 207.2 85.3135 206.659C82.3677 203.543 84.884 201.115 82.2649 197.715C82.2296 196.468 82.2933 195.22 82.4554 193.983C82.4826 193.778 82.5098 193.569 82.5431 193.357L83.3688 179.336L89.5022 178.526L98.8356 177.292L108.946 175.955L110.059 184.671C110.059 184.671 117.932 184.272 127.906 184.405C143.926 184.623 165.363 186.22 168.267 193.073C168.539 193.717 168.811 194.367 169.083 195.018C169.731 196.572 170.372 198.135 171.007 199.705C173.308 205.391 175.504 211.132 177.509 216.557C178.755 219.933 179.929 223.187 181.009 226.233C181.877 228.682 182.681 230.999 183.416 233.131C184.087 235.079 184.695 236.872 185.237 238.481C185.321 238.732 185.403 238.98 185.485 239.219Z" fill="#2F2E41"/>
<path d="M129.063 154.268L109.69 137.814L122.294 125.058L131.088 139.462L163.683 145.924C164.663 145.186 165.836 144.75 167.06 144.667C168.284 144.585 169.506 144.861 170.575 145.461C171.645 146.061 172.518 146.959 173.086 148.046C173.654 149.133 173.894 150.362 173.775 151.583C173.657 152.804 173.186 153.964 172.42 154.922C171.654 155.88 170.626 156.595 169.461 156.978C168.295 157.362 167.044 157.398 165.858 157.083C164.673 156.767 163.605 156.114 162.785 155.202L129.063 154.268Z" fill="#A0616A"/>
<path d="M92.5686 116.191C90.3297 123.475 111.652 140.846 111.652 140.846C111.889 139.097 123.979 154.176 124.801 152.81C127.139 148.929 129.711 139.336 132.41 138.11C133.953 137.408 125.099 127.662 125.099 127.662C125.099 127.662 120.583 121.687 114.62 114.115C112.974 111.942 110.805 110.222 108.315 109.114C105.826 108.005 103.096 107.545 100.38 107.775C100.38 107.775 94.8075 108.907 92.5686 116.191Z" fill="#3F3D56"/>
<path d="M101.996 100.067C109.233 100.067 115.099 94.2004 115.099 86.9638C115.099 79.7273 109.233 73.8609 101.996 73.8609C94.7597 73.8609 88.8933 79.7273 88.8933 86.9638C88.8933 94.2004 94.7597 100.067 101.996 100.067Z" fill="#A0616A"/>
<path d="M108.548 108.727C111.371 110.405 113.059 113.489 114.029 116.626C115.823 122.435 116.903 128.441 117.245 134.512L118.269 152.685L130.949 191.382C119.96 200.68 78.6518 193.495 78.6518 193.495C78.6518 193.495 77.3838 193.072 78.6518 191.804C79.9198 190.536 81.1543 191.66 79.8863 190.392C78.6182 189.123 79.4924 190.536 79.915 189.268C80.3377 188 79.915 188.845 79.4924 188.423C79.0697 188 82.7645 184.196 82.7645 184.196L79.3831 161.984L75.1564 117.18C80.2285 110.84 90.4292 107.103 90.4292 107.103L93.0649 102.358L106.243 103.413L108.548 108.727Z" fill="#3F3D56"/>
<path d="M112.798 80.0024C113.816 80.762 114.57 81.8219 114.955 83.0328C115.102 81.0539 115.112 79.0671 114.983 77.0869C114.828 75.6955 113.849 75.3825 112.714 75.0198C111.69 74.6921 110.531 74.322 110.22 72.9712C106.101 68.9643 98.9309 69.1664 94.024 70.564C91.3239 71.3332 89.7703 72.3213 89.6313 72.9002L89.6024 73.0193L89.4928 73.0741C87.4115 74.1148 87.0064 77.401 87.0331 79.9744C87.0838 84.8229 88.7579 90.3296 89.701 90.777C89.751 90.8007 89.7636 90.7914 89.7852 90.7734C91.2052 89.6385 92.9378 90.8596 93.6991 91.5234C94.1482 88.51 95.5941 85.7339 97.806 83.6387C100.018 81.5434 102.868 80.2498 105.901 79.9644C106.892 79.8686 107.875 79.7038 108.842 79.4712C109.333 79.3442 109.838 79.278 110.345 79.2741C111.218 79.2608 112.073 79.515 112.798 80.0024Z" fill="#2F2E41"/>
<path d="M96.2872 174.009L92.2791 171.956C92.0643 171.803 91.9118 171.578 91.8493 171.321C91.7868 171.065 91.8186 170.795 91.9388 170.56C92.059 170.326 92.2596 170.142 92.504 170.043C92.7484 169.944 93.0203 169.936 93.27 170.021L97.2781 172.074C97.4929 172.227 97.6454 172.452 97.7079 172.708C97.7704 172.964 97.7386 173.235 97.6184 173.469C97.4982 173.704 97.2976 173.888 97.0532 173.987C96.8088 174.086 96.5369 174.094 96.2872 174.009L96.2872 174.009Z" fill="#6C63FF"/>
<path d="M82.7976 168.509L76.204 143.962L93.8238 140.627L92.8763 157.476L116.027 181.313C117.253 181.263 118.466 181.571 119.52 182.199C120.574 182.826 121.423 183.747 121.962 184.849C122.502 185.95 122.709 187.185 122.559 188.403C122.409 189.62 121.908 190.768 121.117 191.705C120.326 192.643 119.279 193.33 118.104 193.683C116.93 194.036 115.677 194.039 114.501 193.693C113.324 193.347 112.273 192.665 111.477 191.732C110.681 190.799 110.173 189.655 110.016 188.438L82.7976 168.509Z" fill="#A0616A"/>
<path d="M74.401 116.44C68.4202 121.162 76.0966 147.572 76.0966 147.572C77.2851 146.268 78.6661 165.545 80.1189 164.888C84.2476 163.023 91.815 156.59 94.7324 157.114C96.4008 157.414 94.6528 144.363 94.6528 144.363C94.6528 144.363 94.3313 136.881 93.7271 127.261C93.6067 124.538 92.7994 121.89 91.3803 119.563C89.9612 117.237 87.9765 115.307 85.6109 113.953C85.6109 113.953 80.3818 111.719 74.401 116.44Z" fill="#3F3D56"/>
<path d="M281.697 184.048L42.3397 183.776C40.9946 180.924 39.8003 178.004 38.7618 175.026L276.017 175.277C278.301 177.929 280.212 180.88 281.697 184.048Z" fill="#3F3D56"/>
<path d="M205.461 247.506C204.224 248.105 202.976 248.683 201.717 249.239C199.624 248.051 197.555 246.808 195.499 245.537L203.126 242.186L205.461 247.506Z" fill="#FFB6B6"/>
<path d="M261.074 205.83C259.834 207.493 258.554 209.123 257.236 210.72C256.02 212.193 254.772 213.638 253.491 215.054C252.962 215.641 252.427 216.225 251.879 216.802C250.872 217.882 249.843 218.944 248.792 219.987C246.898 220.583 243.063 221.632 238.953 222.612C235.962 223.323 232.826 223.997 230.182 224.427C228.703 224.693 227.206 224.852 225.703 224.905C223.919 224.92 222.107 224.872 220.29 224.775C218.239 224.666 216.185 224.497 214.156 224.279C208.879 223.725 203.767 222.863 199.358 221.977C197.743 221.657 196.224 221.33 194.827 221.012C192.181 220.417 189.967 219.86 188.364 219.437C186.558 218.965 185.53 218.659 185.53 218.659L181.009 226.233L178.662 230.161L176.938 233.05L176.478 233.815C176.285 233.709 176.091 233.6 175.897 233.494C172.841 231.799 169.7 230.261 166.485 228.888C164.374 227.999 162.236 227.197 160.077 226.514H160.074C159.248 226.254 158.419 226.009 157.588 225.785C157.848 225.086 158.111 224.383 158.377 223.674C158.873 222.352 159.379 221.018 159.895 219.673C161.011 216.757 162.167 213.799 163.355 210.856C164.329 208.44 165.321 206.033 166.325 203.658C166.788 202.564 167.728 201.602 169.044 200.758C169.673 200.361 170.329 200.01 171.007 199.705C174.772 197.991 180.319 196.875 186.431 196.158C186.936 196.1 187.445 196.043 187.956 195.988C193.016 195.456 198.384 195.181 203.404 195.054C205.918 194.99 208.343 194.966 210.599 194.963C211.328 194.963 212.037 194.965 212.726 194.969H212.729C214.589 194.978 216.3 195.006 217.807 195.036C218.1 195.042 218.384 195.051 218.662 195.057H218.666C218.853 195.06 219.038 195.066 219.219 195.069C222.513 195.154 224.533 195.257 224.533 195.257L225.316 189.111L225.476 187.871L225.628 186.691V186.688L225.646 186.54L225.77 186.537L227.947 186.495L246.251 186.138L256.25 185.941L254.665 192.734L252.049 203.943C252.315 205.715 261.164 204.327 261.074 205.83Z" fill="#2F2E41"/>
<path d="M207.717 246.387C206.97 246.768 206.217 247.143 205.461 247.506C204.224 248.105 202.976 248.683 201.717 249.239C199.624 248.051 197.555 246.808 195.499 245.537C192.141 243.463 188.818 241.315 185.485 239.219C184.986 238.902 184.49 238.59 183.991 238.282H183.988C182.615 236.243 181.214 234.12 179.802 231.934C179.781 231.903 179.763 231.873 179.744 231.843C179.381 231.286 179.021 230.726 178.662 230.161C176.402 226.623 174.131 222.933 171.926 219.164L177.509 216.557L187.889 211.712L189.68 210.878L194.827 221.012L199.418 230.052L200.44 232.064L207.717 246.387Z" fill="#2F2E41"/>
<path d="M209.281 197.73L235.745 172.209L243.08 151.44L232.261 146.736C226.704 152.059 220.697 168.64 220.697 168.64L202.486 191.808C202.344 191.857 202.202 191.908 202.063 191.97C201.242 192.332 200.529 192.899 199.992 193.617C199.455 194.334 199.113 195.179 198.997 196.068C198.882 196.957 198.998 197.86 199.334 198.691C199.67 199.522 200.214 200.253 200.915 200.812C201.616 201.371 202.449 201.74 203.334 201.883C204.219 202.026 205.126 201.938 205.967 201.628C206.808 201.319 207.555 200.797 208.136 200.114C208.716 199.431 209.111 198.61 209.281 197.73Z" fill="#FFB8B8"/>
<path d="M229.217 149.055L242.94 153.411L242.992 153.403C248.099 152.547 252.338 144.205 254.994 137.357C255.868 135.098 255.851 132.592 254.948 130.345C254.045 128.098 252.322 126.278 250.128 125.252C248.505 124.506 246.705 124.23 244.933 124.453C243.16 124.677 241.485 125.392 240.098 126.518L233.051 132.276L229.217 149.055Z" fill="#6C63FF"/>
<path d="M261.019 206.136L261.099 206.03C265.38 200.351 259.524 186.288 258.639 184.249L262.62 183.07L261.926 175.489L261.592 172.109L264.687 169.169L264.698 169.094L266.827 153.944L269.612 143.917C270.662 140.127 270.684 136.125 269.676 132.323C268.669 128.521 266.667 125.055 263.878 122.282L258.184 116.629L251.362 105.951L239.923 105.656L235.81 112.962C231.985 113.743 228.555 115.841 226.118 118.89C223.681 121.94 222.39 125.747 222.472 129.65L222.859 149.102L218.755 173.203L218.64 177.58L214.612 181.831L215.356 186.129L212.343 187.329L210.869 193.436C210.305 194.14 206.587 198.84 206.553 200.151C206.548 200.347 206.688 200.541 206.995 200.76C209.401 202.482 222.854 206.214 228.908 203.97C235.357 201.583 260.633 206.067 260.887 206.112L261.019 206.136Z" fill="#6C63FF"/>
<path d="M244.644 102.382C253.012 102.382 259.797 95.5978 259.797 87.2289C259.797 78.8599 253.012 72.0755 244.644 72.0755C236.275 72.0755 229.49 78.8599 229.49 87.2289C229.49 95.5978 236.275 102.382 244.644 102.382Z" fill="#FFB8B8"/>
<path d="M242.795 102.585C245.142 102.622 247.487 102.458 249.806 102.095C252.104 101.628 257.246 97.8598 258.679 95.5926C259.744 93.908 260.425 91.2775 260.808 89.3674C261.325 86.8399 261.306 84.232 260.751 81.7125C260.196 79.1931 259.118 76.8183 257.586 74.742C256.998 73.8735 256.186 73.1802 255.235 72.7355C255.151 72.7026 255.065 72.6734 254.977 72.6484C253.593 72.2842 252.348 71.5144 251.405 70.4379C251.222 70.2202 251.023 70.016 250.811 69.8267C249.744 68.9265 248.479 68.2915 247.12 67.9736C244.926 67.3864 241.751 67.9693 237.683 69.7076C235.64 70.581 233.405 70.2649 231.685 69.8919C231.589 69.8733 231.489 69.8802 231.396 69.9121C231.303 69.9439 231.22 69.9995 231.156 70.0734C230.424 70.7601 229.46 71.1446 228.457 71.1494C227.842 71.1764 227.197 72.0273 226.418 73.1369C226.241 73.3888 226.035 73.6828 225.886 73.8616L225.866 73.5181L225.518 73.9013C224.972 74.5036 224.587 75.2344 224.399 76.0256C224.211 76.8169 224.226 77.6428 224.443 78.4265C224.66 79.2102 225.072 79.9262 225.641 80.5079C226.209 81.0895 226.916 81.5178 227.694 81.753C228.312 81.9175 228.946 82.0184 229.584 82.0542C229.971 82.089 230.371 82.125 230.755 82.1916C231.986 82.4436 233.13 83.0105 234.076 83.8369C235.023 84.6633 235.739 85.721 236.154 86.9067C236.253 87.1807 236.412 87.4285 236.622 87.631C236.831 87.8334 237.084 87.9851 237.361 88.0742C237.638 88.1634 237.932 88.1877 238.22 88.1452C238.508 88.1027 238.783 87.9946 239.022 87.8292C239.422 87.5181 239.891 87.3083 240.389 87.2176C240.887 87.1268 241.4 87.158 241.883 87.3083C242.301 87.5406 242.626 87.9095 242.804 88.3532C243.021 88.8475 243.38 89.2661 243.835 89.5556C245.392 90.3586 245.5 93.9159 244.94 96.8814C244.401 99.7398 243.335 101.808 242.348 101.91C241.589 101.988 241.502 102.042 241.447 102.177L241.398 102.297L241.483 102.41C241.903 102.562 242.35 102.621 242.795 102.585Z" fill="#2F2E41"/>
<path d="M232.98 144.473L227.137 132.825C218.656 133.404 201.824 143.21 201.824 143.21L169.978 149.962C169.034 149.599 168.012 149.491 167.014 149.649C166.015 149.807 165.076 150.226 164.291 150.862C163.506 151.498 162.902 152.33 162.54 153.274C162.179 154.218 162.072 155.24 162.232 156.239C162.391 157.237 162.81 158.175 163.447 158.96C164.085 159.744 164.917 160.347 165.862 160.707C166.806 161.068 167.829 161.173 168.826 161.013C169.824 160.852 170.762 160.432 171.546 159.793L212.057 156.89L232.98 144.473Z" fill="#FFB8B8"/>
<path d="M230.623 146.386L245.882 135.046L248.57 125.36C249.091 123.456 249.069 121.445 248.507 119.553C247.944 117.662 246.864 115.965 245.388 114.655C243.375 112.893 240.769 111.961 238.095 112.047C235.421 112.133 232.88 113.231 230.985 115.12C225.242 120.851 218.693 128.848 220.1 134.392L220.114 134.448L230.623 146.386Z" fill="#6C63FF"/>
<path d="M211.734 176.717H170.904V182.161H211.734V176.717Z" fill="white"/>
<path d="M107.392 176.717H66.5622V182.161H107.392V176.717Z" fill="white"/>
<path d="M112.159 150.537V176.458C112.16 176.788 112.291 177.105 112.524 177.338C112.758 177.572 113.075 177.703 113.405 177.703H151.816C152.147 177.703 152.463 177.572 152.697 177.338C152.93 177.105 153.062 176.788 153.062 176.458V150.537C153.061 150.207 152.93 149.891 152.696 149.658C152.463 149.424 152.146 149.293 151.816 149.293H113.405C113.075 149.293 112.759 149.424 112.525 149.658C112.292 149.891 112.16 150.207 112.159 150.537Z" fill="#3F3D56"/>
<path d="M113.06 150.86V176.138C113.061 176.314 113.131 176.483 113.256 176.608C113.381 176.733 113.55 176.803 113.726 176.804H151.497C151.673 176.803 151.842 176.733 151.967 176.608C152.092 176.483 152.162 176.314 152.162 176.138V150.86C152.162 150.683 152.092 150.514 151.967 150.388C151.843 150.263 151.673 150.193 151.497 150.193H113.726C113.549 150.193 113.38 150.263 113.255 150.388C113.131 150.514 113.06 150.683 113.06 150.86Z" fill="#6C63FF"/>
<path d="M111.356 181.513C111.426 181.601 111.516 181.672 111.618 181.721C111.719 181.769 111.831 181.794 111.944 181.794H153.073C153.186 181.794 153.297 181.769 153.398 181.72C153.5 181.672 153.589 181.601 153.66 181.514C153.731 181.426 153.781 181.324 153.808 181.215C153.834 181.106 153.836 180.992 153.813 180.882L153.175 177.849C153.148 177.725 153.091 177.61 153.009 177.514C152.926 177.418 152.821 177.344 152.703 177.299C152.618 177.266 152.527 177.249 152.435 177.249H112.58C112.488 177.249 112.397 177.266 112.311 177.299C112.193 177.344 112.088 177.418 112.006 177.514C111.923 177.61 111.866 177.725 111.84 177.849L111.201 180.882C111.179 180.992 111.181 181.106 111.207 181.215C111.234 181.324 111.285 181.426 111.356 181.513Z" fill="#2F2E41"/>
<path d="M151.023 178.555H151.995C152.076 178.555 152.143 178.489 152.143 178.407V177.943C152.143 177.861 152.076 177.795 151.995 177.795H151.023C150.942 177.795 150.876 177.861 150.876 177.943V178.407C150.876 178.489 150.942 178.555 151.023 178.555Z" fill="#3F3D56"/>
<path d="M148.49 178.555H149.461C149.543 178.555 149.609 178.489 149.609 178.407V177.943C149.609 177.861 149.543 177.795 149.461 177.795H148.49C148.408 177.795 148.342 177.861 148.342 177.943V178.407C148.342 178.489 148.408 178.555 148.49 178.555Z" fill="#3F3D56"/>
<path d="M145.956 178.555H146.928C147.009 178.555 147.076 178.489 147.076 178.407V177.943C147.076 177.861 147.009 177.795 146.928 177.795H145.956C145.875 177.795 145.809 177.861 145.809 177.943V178.407C145.809 178.489 145.875 178.555 145.956 178.555Z" fill="#3F3D56"/>
<path d="M143.423 178.555H144.394C144.476 178.555 144.542 178.489 144.542 178.407V177.943C144.542 177.861 144.476 177.795 144.394 177.795H143.423C143.341 177.795 143.275 177.861 143.275 177.943V178.407C143.275 178.489 143.341 178.555 143.423 178.555Z" fill="#3F3D56"/>
<path d="M140.889 178.555H141.861C141.942 178.555 142.008 178.489 142.008 178.407V177.943C142.008 177.861 141.942 177.795 141.861 177.795H140.889C140.808 177.795 140.742 177.861 140.742 177.943V178.407C140.742 178.489 140.808 178.555 140.889 178.555Z" fill="#3F3D56"/>
<path d="M138.356 178.555H139.327C139.409 178.555 139.475 178.489 139.475 178.407V177.943C139.475 177.861 139.409 177.795 139.327 177.795H138.356C138.274 177.795 138.208 177.861 138.208 177.943V178.407C138.208 178.489 138.274 178.555 138.356 178.555Z" fill="#3F3D56"/>
<path d="M135.822 178.555H136.794C136.875 178.555 136.941 178.489 136.941 178.407V177.943C136.941 177.861 136.875 177.795 136.794 177.795H135.822C135.741 177.795 135.675 177.861 135.675 177.943V178.407C135.675 178.489 135.741 178.555 135.822 178.555Z" fill="#3F3D56"/>
<path d="M133.289 178.555H134.26C134.342 178.555 134.408 178.489 134.408 178.407V177.943C134.408 177.861 134.342 177.795 134.26 177.795H133.289C133.207 177.795 133.141 177.861 133.141 177.943V178.407C133.141 178.489 133.207 178.555 133.289 178.555Z" fill="#3F3D56"/>
<path d="M130.755 178.555H131.727C131.808 178.555 131.874 178.489 131.874 178.407V177.943C131.874 177.861 131.808 177.795 131.727 177.795H130.755C130.674 177.795 130.608 177.861 130.608 177.943V178.407C130.608 178.489 130.674 178.555 130.755 178.555Z" fill="#3F3D56"/>
<path d="M128.222 178.555H129.193C129.275 178.555 129.341 178.489 129.341 178.407V177.943C129.341 177.861 129.275 177.795 129.193 177.795H128.222C128.14 177.795 128.074 177.861 128.074 177.943V178.407C128.074 178.489 128.14 178.555 128.222 178.555Z" fill="#3F3D56"/>
<path d="M125.688 178.555H126.66C126.741 178.555 126.807 178.489 126.807 178.407V177.943C126.807 177.861 126.741 177.795 126.66 177.795H125.688C125.607 177.795 125.54 177.861 125.54 177.943V178.407C125.54 178.489 125.607 178.555 125.688 178.555Z" fill="#3F3D56"/>
<path d="M123.155 178.555H124.126C124.208 178.555 124.274 178.489 124.274 178.407V177.943C124.274 177.861 124.208 177.795 124.126 177.795H123.155C123.073 177.795 123.007 177.861 123.007 177.943V178.407C123.007 178.489 123.073 178.555 123.155 178.555Z" fill="#3F3D56"/>
<path d="M120.621 178.555H121.592C121.674 178.555 121.74 178.489 121.74 178.407V177.943C121.74 177.861 121.674 177.795 121.592 177.795H120.621C120.539 177.795 120.473 177.861 120.473 177.943V178.407C120.473 178.489 120.539 178.555 120.621 178.555Z" fill="#3F3D56"/>
<path d="M118.087 178.555H119.059C119.14 178.555 119.207 178.489 119.207 178.407V177.943C119.207 177.861 119.14 177.795 119.059 177.795H118.087C118.006 177.795 117.94 177.861 117.94 177.943V178.407C117.94 178.489 118.006 178.555 118.087 178.555Z" fill="#3F3D56"/>
<path d="M115.554 178.555H116.525C116.607 178.555 116.673 178.489 116.673 178.407V177.943C116.673 177.861 116.607 177.795 116.525 177.795H115.554C115.472 177.795 115.406 177.861 115.406 177.943V178.407C115.406 178.489 115.472 178.555 115.554 178.555Z" fill="#3F3D56"/>
<path d="M113.02 178.555H113.992C114.073 178.555 114.14 178.489 114.14 178.407V177.943C114.14 177.861 114.073 177.795 113.992 177.795H113.02C112.939 177.795 112.873 177.861 112.873 177.943V178.407C112.873 178.489 112.939 178.555 113.02 178.555Z" fill="#3F3D56"/>
<path d="M151.053 179.822H152.025C152.106 179.822 152.173 179.756 152.173 179.674V179.209C152.173 179.128 152.106 179.062 152.025 179.062H151.053C150.972 179.062 150.906 179.128 150.906 179.209V179.674C150.906 179.756 150.972 179.822 151.053 179.822Z" fill="#3F3D56"/>
<path d="M148.52 179.822H149.491C149.573 179.822 149.639 179.756 149.639 179.674V179.209C149.639 179.128 149.573 179.062 149.491 179.062H148.52C148.438 179.062 148.372 179.128 148.372 179.209V179.674C148.372 179.756 148.438 179.822 148.52 179.822Z" fill="#3F3D56"/>
<path d="M145.986 179.822H146.958C147.039 179.822 147.105 179.756 147.105 179.674V179.209C147.105 179.128 147.039 179.062 146.958 179.062H145.986C145.905 179.062 145.839 179.128 145.839 179.209V179.674C145.839 179.756 145.905 179.822 145.986 179.822Z" fill="#3F3D56"/>
<path d="M143.453 179.822H144.424C144.506 179.822 144.572 179.756 144.572 179.674V179.209C144.572 179.128 144.506 179.062 144.424 179.062H143.453C143.371 179.062 143.305 179.128 143.305 179.209V179.674C143.305 179.756 143.371 179.822 143.453 179.822Z" fill="#3F3D56"/>
<path d="M140.919 179.822H141.891C141.972 179.822 142.038 179.756 142.038 179.674V179.209C142.038 179.128 141.972 179.062 141.891 179.062H140.919C140.838 179.062 140.772 179.128 140.772 179.209V179.674C140.772 179.756 140.838 179.822 140.919 179.822Z" fill="#3F3D56"/>
<path d="M138.386 179.822H139.357C139.439 179.822 139.505 179.756 139.505 179.674V179.209C139.505 179.128 139.439 179.062 139.357 179.062H138.386C138.304 179.062 138.238 179.128 138.238 179.209V179.674C138.238 179.756 138.304 179.822 138.386 179.822Z" fill="#3F3D56"/>
<path d="M135.852 179.822H136.824C136.905 179.822 136.971 179.756 136.971 179.674V179.209C136.971 179.128 136.905 179.062 136.824 179.062H135.852C135.771 179.062 135.705 179.128 135.705 179.209V179.674C135.705 179.756 135.771 179.822 135.852 179.822Z" fill="#3F3D56"/>
<path d="M133.319 179.822H134.29C134.372 179.822 134.438 179.756 134.438 179.674V179.209C134.438 179.128 134.372 179.062 134.29 179.062H133.319C133.237 179.062 133.171 179.128 133.171 179.209V179.674C133.171 179.756 133.237 179.822 133.319 179.822Z" fill="#3F3D56"/>
<path d="M130.785 179.822H131.757C131.838 179.822 131.904 179.756 131.904 179.674V179.209C131.904 179.128 131.838 179.062 131.757 179.062H130.785C130.704 179.062 130.637 179.128 130.637 179.209V179.674C130.637 179.756 130.704 179.822 130.785 179.822Z" fill="#3F3D56"/>
<path d="M128.252 179.822H129.223C129.305 179.822 129.371 179.756 129.371 179.674V179.209C129.371 179.128 129.305 179.062 129.223 179.062H128.252C128.17 179.062 128.104 179.128 128.104 179.209V179.674C128.104 179.756 128.17 179.822 128.252 179.822Z" fill="#3F3D56"/>
<path d="M125.718 179.822H126.69C126.771 179.822 126.837 179.756 126.837 179.674V179.209C126.837 179.128 126.771 179.062 126.69 179.062H125.718C125.636 179.062 125.57 179.128 125.57 179.209V179.674C125.57 179.756 125.636 179.822 125.718 179.822Z" fill="#3F3D56"/>
<path d="M123.184 179.822H124.156C124.238 179.822 124.304 179.756 124.304 179.674V179.209C124.304 179.128 124.238 179.062 124.156 179.062H123.184C123.103 179.062 123.037 179.128 123.037 179.209V179.674C123.037 179.756 123.103 179.822 123.184 179.822Z" fill="#3F3D56"/>
<path d="M120.651 179.822H121.622C121.704 179.822 121.77 179.756 121.77 179.674V179.209C121.77 179.128 121.704 179.062 121.622 179.062H120.651C120.569 179.062 120.503 179.128 120.503 179.209V179.674C120.503 179.756 120.569 179.822 120.651 179.822Z" fill="#3F3D56"/>
<path d="M118.117 179.822H119.089C119.17 179.822 119.237 179.756 119.237 179.674V179.209C119.237 179.128 119.17 179.062 119.089 179.062H118.117C118.036 179.062 117.97 179.128 117.97 179.209V179.674C117.97 179.756 118.036 179.822 118.117 179.822Z" fill="#3F3D56"/>
<path d="M115.584 179.822H116.555C116.637 179.822 116.703 179.756 116.703 179.674V179.209C116.703 179.128 116.637 179.062 116.555 179.062H115.584C115.502 179.062 115.436 179.128 115.436 179.209V179.674C115.436 179.756 115.502 179.822 115.584 179.822Z" fill="#3F3D56"/>
<path d="M113.05 179.822H114.022C114.103 179.822 114.169 179.756 114.169 179.674V179.209C114.169 179.128 114.103 179.062 114.022 179.062H113.05C112.969 179.062 112.903 179.128 112.903 179.209V179.674C112.903 179.756 112.969 179.822 113.05 179.822Z" fill="#3F3D56"/>
<path d="M130.025 181.342H139.864C139.945 181.342 140.012 181.276 140.012 181.194V180.729C140.012 180.648 139.945 180.582 139.864 180.582H130.025C129.944 180.582 129.877 180.648 129.877 180.729V181.194C129.877 181.276 129.944 181.342 130.025 181.342Z" fill="#3F3D56"/>
</g>
<defs>
<clipPath id="clip0_0_1">
<rect width="252" height="191.478" fill="white" transform="translate(34 67)"/>
</clipPath>
</defs>
</svg>
