<svg width="328" height="324" viewBox="0 0 328 324" fill="none" xmlns="http://www.w3.org/2000/svg">
<path d="M271.945 30.5122L138.842 1.72413C124.753 -1.32304 110.039 0.803629 97.3892 7.71517L68.5 23.5L45.3253 33.6588C36.5686 37.4973 28.8561 43.3729 22.8303 50.796L13.724 62.0139C3.3646 74.7755 -1.30575 91.2283 0.803796 107.529L12.4795 197.751C13.4835 205.509 15.9948 212.995 19.872 219.789L53.8847 279.39C63.1018 295.541 79.2867 306.505 97.7043 309.075L199.537 323.284C224.2 326.726 248.425 314.575 260.415 292.75L320.131 184.054C326.221 172.969 328.652 160.243 327.077 147.693L318.794 81.6854C315.622 56.4127 296.84 35.8967 271.945 30.5122Z" fill="white"/>
<g clip-path="url(#clip0_0_1)">
<path d="M222.35 281.173C222.086 281.451 221.812 281.725 221.535 282H189.89C189.63 281.732 189.373 281.458 189.116 281.173C189.106 281.163 189.095 281.149 189.085 281.138C185.647 277.323 183.483 271.778 182.133 265.93C182.046 265.576 181.97 265.218 181.894 264.856C181.54 263.213 181.252 261.552 181.016 259.905C180.975 259.62 180.933 259.335 180.898 259.05C180.579 256.684 180.364 254.356 180.225 252.171C180.208 251.889 180.19 251.615 180.173 251.34C179.919 246.989 179.917 242.627 180.166 238.276C180.166 238.276 180.208 238.276 180.288 238.279C180.52 238.29 181.079 238.314 181.901 238.363C184.166 238.502 188.44 238.849 193.467 239.669C193.741 239.714 194.018 239.763 194.296 239.812C198.547 240.515 202.741 241.533 206.843 242.855C207.1 242.942 207.353 243.029 207.61 243.116L207.613 243.133L210.76 258.946L212.064 244.871C213.101 245.34 214.111 245.84 215.079 246.375C215.349 246.524 215.613 246.674 215.873 246.827C218.086 248.083 220.094 249.669 221.83 251.531C232.15 262.987 229.94 273.227 222.35 281.173Z" fill="#F2F2F2"/>
<path d="M209.126 261.122L209.674 261.731C216.015 268.839 219.8 275.437 220.966 281.438C220.984 281.525 220.997 281.612 221.016 281.699L220.61 281.776L220.219 281.846C219.029 275.303 214.599 268.539 209.069 262.338C208.893 262.136 208.714 261.932 208.529 261.732C206.165 259.128 203.624 256.629 201.054 254.293C200.857 254.11 200.654 253.927 200.451 253.745C197.043 250.678 193.614 247.904 190.557 245.566C190.341 245.4 190.123 245.236 189.907 245.076C184.716 241.139 180.688 238.53 179.79 237.958C179.682 237.886 179.62 237.849 179.606 237.839L179.819 237.5L179.819 237.494L180.035 237.151C180.049 237.161 180.255 237.286 180.627 237.529C182.024 238.432 185.78 240.915 190.453 244.446C190.663 244.606 190.881 244.769 191.097 244.935C193.58 246.83 196.296 249.002 199.039 251.378C199.729 251.974 200.402 252.569 201.057 253.163C201.263 253.344 201.466 253.526 201.664 253.709C204.442 256.234 206.929 258.705 209.126 261.122Z" fill="white"/>
<path d="M193.765 238.995C193.671 239.221 193.571 239.447 193.466 239.669C192.674 241.387 191.661 242.993 190.452 244.447C190.275 244.655 190.095 244.867 189.907 245.076C189.401 245.635 188.862 246.176 188.291 246.698C185.953 248.817 183.183 250.402 180.173 251.34C180.076 251.372 179.982 251.403 179.885 251.431C179.902 251.705 179.92 251.976 179.937 252.258C180.034 252.23 180.128 252.202 180.225 252.171C183.419 251.206 186.359 249.542 188.832 247.299C189.437 246.752 190.012 246.173 190.556 245.566C190.743 245.361 190.924 245.149 191.097 244.937C192.39 243.381 193.466 241.657 194.296 239.812C194.393 239.589 194.49 239.367 194.584 239.141C194.306 239.092 194.032 239.044 193.765 238.995Z" fill="white"/>
<path d="M206.985 242.24C206.944 242.445 206.895 242.65 206.843 242.855C205.903 246.761 203.9 250.33 201.057 253.164C200.859 253.362 200.658 253.557 200.45 253.745C200.391 253.804 200.325 253.866 200.262 253.922C197.676 256.26 194.57 257.946 191.201 258.838C187.833 259.73 184.3 259.803 180.898 259.05C180.818 259.036 180.735 259.016 180.655 258.998C180.697 259.283 180.735 259.572 180.78 259.856C180.86 259.874 180.936 259.891 181.016 259.905C184.505 260.628 188.114 260.517 191.552 259.582C194.99 258.647 198.159 256.914 200.804 254.523C200.887 254.447 200.974 254.374 201.053 254.294C201.262 254.099 201.463 253.905 201.664 253.71C204.573 250.794 206.631 247.136 207.613 243.133C207.665 242.925 207.714 242.716 207.759 242.508C207.502 242.418 207.246 242.327 206.985 242.24Z" fill="white"/>
<path d="M215.079 245.788C215.082 245.982 215.082 246.181 215.079 246.375C215.021 251.866 212.895 257.133 209.126 261.121C208.932 261.33 208.73 261.531 208.529 261.733C208.311 261.945 208.092 262.157 207.867 262.358C204.377 265.508 199.968 267.452 195.292 267.902C190.615 268.351 185.918 267.284 181.894 264.856C181.825 264.82 181.758 264.781 181.693 264.738C181.776 265.107 181.859 265.468 181.949 265.829C182.012 265.864 182.071 265.899 182.133 265.93C186.274 268.243 191.034 269.2 195.746 268.668C200.457 268.136 204.885 266.141 208.408 262.963C208.633 262.758 208.859 262.553 209.07 262.337C209.278 262.139 209.476 261.938 209.674 261.729C213.496 257.692 215.702 252.388 215.873 246.827C215.88 246.639 215.884 246.452 215.884 246.264C215.62 246.101 215.349 245.944 215.079 245.788Z" fill="white"/>
<path d="M144.947 94.5315H83.9655C83.4581 94.531 82.9715 94.3288 82.6127 93.9694C82.2539 93.61 82.052 93.1227 82.0515 92.6144V46.2374C82.052 45.7291 82.2538 45.2417 82.6127 44.8823C82.9715 44.5229 83.458 44.3207 83.9655 44.3201H158.817C159.324 44.3207 159.811 44.5229 160.17 44.8823C160.528 45.2417 160.73 45.7291 160.731 46.2374V78.7222C160.726 82.9136 159.062 86.932 156.102 89.8959C153.143 92.8597 149.131 94.5268 144.947 94.5315Z" fill="white"/>
<path d="M144.947 94.7053H83.9655C83.4121 94.7046 82.8815 94.4841 82.4901 94.0921C82.0988 93.7002 81.8786 93.1687 81.878 92.6144V46.2374C81.8786 45.683 82.0987 45.1515 82.4901 44.7595C82.8814 44.3675 83.412 44.147 83.9655 44.1463H158.817C159.37 44.147 159.901 44.3675 160.292 44.7595C160.683 45.1515 160.904 45.683 160.904 46.2374V78.7222C160.899 82.9597 159.217 87.0222 156.225 90.0186C153.233 93.015 149.177 94.7004 144.947 94.7053V94.7053ZM83.9655 44.8412C83.596 44.8417 83.2417 44.9889 82.9804 45.2507C82.7192 45.5124 82.5722 45.8672 82.5718 46.2374V92.6144C82.5722 92.9845 82.7192 93.3393 82.9805 93.601C83.2418 93.8627 83.596 94.0099 83.9655 94.0103H144.947C148.993 94.0058 152.873 92.3936 155.735 89.5275C158.596 86.6614 160.206 82.7754 160.21 78.7222V46.2374C160.21 45.8672 160.063 45.5124 159.802 45.2507C159.54 44.9889 159.186 44.8417 158.817 44.8412H83.9655Z" fill="#CCCCCC"/>
<path d="M144.02 59.9825H98.7617C98.3462 59.9825 97.9477 59.8171 97.6539 59.5229C97.3601 59.2286 97.195 58.8295 97.195 58.4133C97.195 57.9971 97.3601 57.598 97.6539 57.3037C97.9477 57.0095 98.3462 56.8442 98.7617 56.8442H144.02C144.436 56.8448 144.833 57.0104 145.127 57.3046C145.42 57.5988 145.585 57.9975 145.585 58.4133C145.585 58.8291 145.42 59.2278 145.127 59.522C144.833 59.8162 144.436 59.9818 144.02 59.9825V59.9825Z" fill="#CCCCCC"/>
<path d="M144.02 70.7921H98.7617C98.3462 70.7921 97.9477 70.6268 97.6539 70.3325C97.3601 70.0383 97.195 69.6391 97.195 69.223C97.195 68.8068 97.3601 68.4077 97.6539 68.1134C97.9477 67.8192 98.3462 67.6538 98.7617 67.6538H144.02C144.436 67.6538 144.834 67.8192 145.128 68.1134C145.422 68.4077 145.587 68.8068 145.587 69.223C145.587 69.6391 145.422 70.0383 145.128 70.3325C144.834 70.6268 144.436 70.7921 144.02 70.7921Z" fill="#CCCCCC"/>
<path d="M144.02 81.9108H98.7617C98.3462 81.9108 97.9477 81.7455 97.6539 81.4512C97.3601 81.1569 97.195 80.7578 97.195 80.3417C97.195 79.9255 97.3601 79.5264 97.6539 79.2321C97.9477 78.9378 98.3462 78.7725 98.7617 78.7725H144.02C144.436 78.7725 144.834 78.9378 145.128 79.2321C145.422 79.5264 145.587 79.9255 145.587 80.3417C145.587 80.7578 145.422 81.1569 145.128 81.4512C144.834 81.7455 144.436 81.9108 144.02 81.9108Z" fill="#CCCCCC"/>
<path d="M158.255 55.7409C163.422 55.7409 167.61 51.5456 167.61 46.3704C167.61 41.1953 163.422 37 158.255 37C153.088 37 148.899 41.1953 148.899 46.3704C148.899 51.5456 153.088 55.7409 158.255 55.7409Z" fill="#6C63FF"/>
<path d="M156.978 51.2473C156.817 51.2473 156.657 51.2096 156.513 51.1372C156.368 51.0649 156.243 50.9598 156.146 50.8303L153.594 47.4217C153.512 47.3122 153.452 47.1876 153.418 47.055C153.384 46.9224 153.377 46.7844 153.396 46.6489C153.415 46.5134 153.461 46.383 153.531 46.2653C153.6 46.1475 153.692 46.0446 153.802 45.9625C153.911 45.8804 154.036 45.8206 154.168 45.7866C154.3 45.7527 154.438 45.7452 154.573 45.7645C154.709 45.7839 154.839 45.8297 154.956 45.8995C155.074 45.9692 155.177 46.0615 155.259 46.171L156.928 48.4008L161.217 41.9575C161.37 41.7275 161.608 41.5678 161.879 41.5136C162.15 41.4594 162.431 41.5151 162.66 41.6685C162.89 41.8218 163.049 42.0602 163.104 42.3313C163.158 42.6024 163.102 42.8839 162.949 43.1139L157.844 50.7831C157.752 50.9218 157.628 51.0363 157.482 51.117C157.337 51.1978 157.174 51.2423 157.007 51.247C156.998 51.2472 156.988 51.2473 156.978 51.2473Z" fill="white"/>
<path d="M122.439 134.812H61.4577C57.2729 134.807 53.2608 133.14 50.3018 130.176C47.3427 127.213 45.6782 123.194 45.6735 119.003V86.5178C45.6741 86.0094 45.8759 85.5221 46.2348 85.1627C46.5937 84.8032 47.0802 84.6011 47.5877 84.6005H122.439C122.946 84.6011 123.433 84.8032 123.792 85.1627C124.15 85.5221 124.352 86.0094 124.353 86.5178V132.895C124.352 133.403 124.15 133.89 123.792 134.25C123.433 134.609 122.946 134.812 122.439 134.812V134.812Z" fill="white"/>
<path d="M122.439 134.986H61.4577C57.2269 134.981 53.1708 133.296 50.1792 130.299C47.1876 127.303 45.5048 123.24 45.5 119.003V86.5178C45.5006 85.9634 45.7208 85.4319 46.1122 85.0399C46.5035 84.6479 47.0342 84.4274 47.5877 84.4267H122.439C122.992 84.4274 123.523 84.6479 123.914 85.0399C124.306 85.4319 124.526 85.9634 124.526 86.5178V132.895C124.526 133.449 124.306 133.981 123.914 134.373C123.523 134.765 122.992 134.985 122.439 134.986ZM47.5877 85.1216C47.2182 85.1221 46.8639 85.2693 46.6026 85.5311C46.3413 85.7928 46.1943 86.1476 46.1938 86.5178V119.003C46.1984 123.056 47.808 126.942 50.6695 129.808C53.5311 132.674 57.4108 134.286 61.4577 134.291H122.439C122.808 134.29 123.162 134.143 123.424 133.882C123.685 133.62 123.832 133.265 123.833 132.895V86.5178C123.832 86.1476 123.685 85.7928 123.424 85.5311C123.162 85.2693 122.808 85.1221 122.439 85.1216H47.5877Z" fill="#CCCCCC"/>
<path d="M107.643 100.263H62.3838C61.9683 100.263 61.5698 100.098 61.276 99.8033C60.9822 99.509 60.8171 99.1099 60.8171 98.6937C60.8171 98.2776 60.9822 97.8785 61.276 97.5842C61.5698 97.2899 61.9683 97.1246 62.3838 97.1246H107.643C108.058 97.1246 108.457 97.2899 108.75 97.5842C109.044 97.8785 109.209 98.2776 109.209 98.6937C109.209 99.1099 109.044 99.509 108.75 99.8033C108.457 100.098 108.058 100.263 107.643 100.263Z" fill="#CCCCCC"/>
<path d="M107.643 111.073H62.3838C61.9683 111.073 61.5698 110.907 61.276 110.613C60.9822 110.319 60.8171 109.92 60.8171 109.503C60.8171 109.087 60.9822 108.688 61.276 108.394C61.5698 108.1 61.9683 107.934 62.3838 107.934H107.643C108.058 107.934 108.457 108.1 108.75 108.394C109.044 108.688 109.209 109.087 109.209 109.503C109.209 109.92 109.044 110.319 108.75 110.613C108.457 110.907 108.058 111.073 107.643 111.073Z" fill="#CCCCCC"/>
<path d="M107.643 122.191H62.3838C61.9683 122.191 61.5698 122.026 61.276 121.732C60.9822 121.437 60.8171 121.038 60.8171 120.622C60.8171 120.206 60.9822 119.807 61.276 119.513C61.5698 119.218 61.9683 119.053 62.3838 119.053H107.643C108.058 119.053 108.457 119.218 108.75 119.513C109.044 119.807 109.209 120.206 109.209 120.622C109.209 121.038 109.044 121.437 108.75 121.732C108.457 122.026 108.058 122.191 107.643 122.191Z" fill="#CCCCCC"/>
<path d="M122.523 96.3935C127.69 96.3935 131.879 92.1982 131.879 87.0231C131.879 81.8479 127.69 77.6526 122.523 77.6526C117.356 77.6526 113.168 81.8479 113.168 87.0231C113.168 92.1982 117.356 96.3935 122.523 96.3935Z" fill="#6C63FF"/>
<path d="M121.247 91.8999C121.086 91.8999 120.926 91.8623 120.782 91.7899C120.637 91.7175 120.512 91.6124 120.415 91.4829L117.862 88.0743C117.78 87.9648 117.721 87.8402 117.687 87.7076C117.653 87.575 117.645 87.437 117.665 87.3015C117.684 87.166 117.73 87.0357 117.799 86.9179C117.869 86.8001 117.961 86.6972 118.07 86.6151C118.18 86.533 118.304 86.4732 118.437 86.4393C118.569 86.4053 118.707 86.3978 118.842 86.4171C118.977 86.4365 119.107 86.4824 119.225 86.5521C119.343 86.6219 119.445 86.7141 119.527 86.8236L121.197 89.0534L125.486 82.6102C125.639 82.3802 125.877 82.2205 126.148 82.1663C126.418 82.112 126.699 82.1677 126.929 82.3211C127.159 82.4744 127.318 82.7129 127.372 82.984C127.426 83.255 127.371 83.5365 127.218 83.7666L122.113 91.4358C122.021 91.5745 121.897 91.689 121.751 91.7697C121.605 91.8504 121.442 91.8949 121.276 91.8996C121.266 91.8998 121.257 91.8999 121.247 91.8999Z" fill="white"/>
<path d="M198.419 178.04H113.093C108.908 178.036 104.896 176.369 101.937 173.405C98.9782 170.441 97.3137 166.423 97.309 162.231V114.451C97.3098 113.796 97.57 113.167 98.0326 112.704C98.4951 112.241 99.1223 111.98 99.7765 111.979H198.419C199.074 111.98 199.701 112.241 200.163 112.704C200.626 113.167 200.886 113.796 200.887 114.451V175.569C200.886 176.224 200.626 176.852 200.163 177.316C199.701 177.779 199.074 178.04 198.419 178.04V178.04Z" fill="white"/>
<path d="M198.419 178.214H113.093C108.862 178.209 104.806 176.524 101.815 173.528C98.8232 170.531 97.1404 166.469 97.1356 162.231V114.451C97.1363 113.75 97.4148 113.077 97.9099 112.581C98.405 112.085 99.0763 111.806 99.7765 111.806H198.419C199.12 111.807 199.791 112.085 200.286 112.581C200.781 113.077 201.059 113.75 201.06 114.451V175.569C201.059 176.27 200.781 176.943 200.286 177.438C199.791 177.934 199.12 178.213 198.419 178.214V178.214ZM99.7765 112.501C99.2603 112.501 98.7654 112.707 98.4003 113.072C98.0353 113.438 97.83 113.934 97.8294 114.451V162.231C97.8339 166.284 99.4436 170.17 102.305 173.036C105.167 175.903 109.046 177.515 113.093 177.519H198.419C198.936 177.519 199.431 177.313 199.796 176.947C200.161 176.582 200.366 176.086 200.366 175.569V114.451C200.366 113.934 200.16 113.438 199.795 113.073C199.431 112.707 198.936 112.501 198.419 112.501H99.7765Z" fill="#CCCCCC"/>
<path d="M178.92 132.565H119.276C119.004 132.565 118.735 132.512 118.485 132.408C118.234 132.304 118.006 132.152 117.814 131.96C117.622 131.768 117.47 131.54 117.366 131.289C117.262 131.038 117.208 130.769 117.208 130.497C117.208 130.225 117.262 129.956 117.366 129.705C117.47 129.454 117.622 129.226 117.814 129.034C118.006 128.842 118.234 128.689 118.485 128.586C118.735 128.482 119.004 128.429 119.276 128.429H178.92C179.192 128.429 179.46 128.482 179.711 128.586C179.962 128.689 180.19 128.842 180.382 129.034C180.574 129.226 180.726 129.454 180.83 129.705C180.934 129.956 180.987 130.225 180.987 130.497C180.987 130.769 180.934 131.038 180.83 131.289C180.726 131.54 180.574 131.768 180.382 131.96C180.19 132.152 179.962 132.304 179.711 132.408C179.46 132.512 179.192 132.565 178.92 132.565Z" fill="#CCCCCC"/>
<path d="M178.92 146.81H119.276C119.004 146.811 118.735 146.758 118.485 146.654C118.234 146.55 118.006 146.398 117.814 146.206C117.622 146.014 117.47 145.786 117.366 145.535C117.262 145.283 117.208 145.014 117.208 144.743C117.208 144.471 117.262 144.202 117.366 143.951C117.47 143.7 117.622 143.471 117.814 143.279C118.006 143.087 118.234 142.935 118.485 142.831C118.735 142.728 119.004 142.674 119.276 142.675H178.92C179.468 142.675 179.993 142.893 180.38 143.28C180.767 143.668 180.985 144.194 180.985 144.743C180.985 145.291 180.767 145.817 180.38 146.205C179.993 146.593 179.468 146.81 178.92 146.81Z" fill="#CCCCCC"/>
<path d="M178.92 161.463H119.276C118.728 161.463 118.203 161.245 117.816 160.858C117.429 160.47 117.211 159.944 117.211 159.395C117.211 158.847 117.429 158.321 117.816 157.933C118.203 157.545 118.728 157.327 119.276 157.327H178.92C179.192 157.327 179.46 157.38 179.711 157.484C179.962 157.588 180.19 157.74 180.382 157.932C180.574 158.124 180.726 158.352 180.83 158.603C180.934 158.854 180.987 159.124 180.987 159.395C180.987 159.667 180.934 159.936 180.83 160.187C180.726 160.438 180.574 160.667 180.382 160.859C180.19 161.051 179.962 161.203 179.711 161.307C179.46 161.41 179.192 161.464 178.92 161.463Z" fill="#CCCCCC"/>
<path d="M198.729 127.582C205.27 127.582 210.572 122.271 210.572 115.72C210.572 109.169 205.27 103.858 198.729 103.858C192.189 103.858 186.886 109.169 186.886 115.72C186.886 122.271 192.189 127.582 198.729 127.582Z" fill="#6C63FF"/>
<path d="M197.114 121.893C196.909 121.893 196.707 121.846 196.525 121.754C196.342 121.662 196.183 121.529 196.06 121.366L192.829 117.051C192.725 116.912 192.65 116.754 192.607 116.586C192.564 116.419 192.554 116.244 192.579 116.072C192.603 115.901 192.661 115.736 192.749 115.587C192.837 115.438 192.954 115.307 193.092 115.203C193.231 115.1 193.388 115.024 193.556 114.981C193.724 114.938 193.898 114.928 194.069 114.953C194.24 114.977 194.405 115.035 194.554 115.124C194.703 115.212 194.833 115.329 194.937 115.467L197.051 118.29L202.48 110.134C202.674 109.843 202.975 109.641 203.317 109.573C203.66 109.505 204.015 109.575 204.305 109.769C204.596 109.963 204.798 110.265 204.866 110.607C204.935 110.95 204.865 111.306 204.672 111.598L198.21 121.306C198.093 121.481 197.936 121.626 197.751 121.729C197.567 121.831 197.361 121.887 197.15 121.893C197.138 121.893 197.126 121.893 197.114 121.893Z" fill="white"/>
<path d="M229.41 272.53L224.592 274.144L216.083 256.298L223.195 253.915L229.41 272.53Z" fill="#FFB6B6"/>
<path d="M232.201 276.797L216.665 280.958L216.599 280.761C216.059 279.144 216.18 278.454 216.94 276.928C217.312 276.176 217.829 275.505 218.461 274.955C219.094 274.405 219.829 273.985 220.624 273.721L220.624 273.721L222.742 270.614L228.757 270.997L230.113 270.543L232.201 276.797Z" fill="#2F2E41"/>
<path d="M241.315 277.068H236.234L233.817 257.44L241.316 257.44L241.315 277.068Z" fill="#FFB6B6"/>
<path d="M242.61 280.958L226.228 280.958V280.75C226.228 279.044 226.892 278.483 228.096 277.277C228.687 276.682 229.389 276.21 230.163 275.889C230.937 275.568 231.767 275.404 232.605 275.406H232.605L235.597 273.132L241.181 275.406L242.611 275.406L242.61 280.958Z" fill="#2F2E41"/>
<path d="M202.648 119.805C202.753 120.338 202.973 120.842 203.293 121.28C203.613 121.719 204.025 122.082 204.5 122.344C204.975 122.606 205.502 122.761 206.043 122.797C206.585 122.832 207.127 122.749 207.633 122.552L213.498 128.686L218.089 126.025L209.684 117.48C209.298 116.651 208.621 115.993 207.783 115.63C206.944 115.267 206.002 115.225 205.135 115.512C204.268 115.799 203.535 116.394 203.077 117.185C202.619 117.976 202.466 118.908 202.648 119.805V119.805Z" fill="#FFB6B6"/>
<path d="M240.607 150.644L243.251 147.904L227.96 133.72L212.57 119.956L208.308 125.989L224.435 141.066L240.607 150.644Z" fill="#E4E4E4"/>
<path d="M231.212 243.729C231.212 240.285 231.28 237.829 231.334 235.855C231.494 230.079 231.537 228.527 229.33 218.58L228.764 216.026L225.421 226.068C224.354 229.272 223.808 232.627 223.806 236.004L228.959 266.974H218.426L210.712 233.493L210.709 223.251C210.029 222.547 209.649 221.606 209.649 220.626C209.649 219.646 210.029 218.705 210.709 218L213.271 202.657L215.866 181.979H244.28C244.28 181.979 249.294 192.389 244.311 202.716L244.31 243.741L241.736 272.108H233.787L231.212 243.729Z" fill="#2F2E41"/>
<path d="M242.542 184.482L215.965 182.263L215.827 182.252L217.948 144.013C218.073 141.609 218.915 139.297 220.366 137.378C221.817 135.458 223.809 134.019 226.086 133.247V130.571C226.087 129.908 226.35 129.273 226.817 128.805C227.285 128.337 227.919 128.073 228.58 128.072H232.463C232.927 128.071 233.382 128.199 233.776 128.444C234.17 128.688 234.488 129.037 234.694 129.453L236.593 133.257L243.774 139.011C247.32 141.852 244.466 170.343 244.312 171.847L246.049 180.544C246.144 181.022 246.133 181.516 246.015 181.989C245.897 182.463 245.676 182.904 245.368 183.282C245.06 183.659 244.672 183.964 244.232 184.174C243.792 184.383 243.311 184.492 242.824 184.494C242.731 184.493 242.637 184.489 242.542 184.482Z" fill="#E4E4E4"/>
<path d="M214.397 194.578C214.817 194.235 215.157 193.803 215.393 193.313C215.628 192.824 215.754 192.289 215.76 191.745C215.767 191.202 215.655 190.664 215.431 190.169C215.208 189.674 214.879 189.234 214.467 188.88L217.104 180.808L212.598 178.007L209.034 189.458C208.486 190.19 208.225 191.098 208.301 192.009C208.377 192.921 208.784 193.773 209.445 194.404C210.106 195.035 210.975 195.402 211.888 195.434C212.801 195.466 213.693 195.161 214.397 194.578V194.578Z" fill="#FFB6B6"/>
<path d="M223.665 139.705L220.007 138.483L214.722 162.099L209.854 185.585L217.175 186.664L222.852 161.692L223.665 139.705Z" fill="#E4E4E4"/>
<path d="M227.661 125.628C232.482 125.628 236.39 121.714 236.39 116.885C236.39 112.057 232.482 108.143 227.661 108.143C222.84 108.143 218.932 112.057 218.932 116.885C218.932 121.714 222.84 125.628 227.661 125.628Z" fill="#FFB6B6"/>
<path d="M215.916 112.604C215.997 111.775 216.234 110.97 216.615 110.23C217.023 111.119 218.296 111.273 219.167 110.83C220.038 110.388 220.622 109.548 221.244 108.794C222.887 106.805 225.146 105.192 227.707 104.898C230.267 104.604 233.09 105.899 234.057 108.291C234.491 107.688 235.417 107.62 236.073 107.971C236.706 108.371 237.199 108.957 237.487 109.649C238.131 110.973 238.495 112.417 238.556 113.889C238.617 115.36 238.374 116.829 237.842 118.202C236.763 120.935 234.101 124.617 231.354 125.648C229.686 126.274 228.002 125.473 226.228 125.648C226.321 123.709 226.696 121.317 226.789 119.378C226.84 118.317 226.848 117.129 226.124 116.352C225.901 116.14 225.636 115.981 225.345 115.884C225.055 115.787 224.746 115.755 224.442 115.79C224.138 115.826 223.845 115.928 223.585 116.09C223.324 116.251 223.103 116.468 222.935 116.724C222.845 116.122 222.642 115.541 222.336 115.015C222.179 114.753 221.952 114.541 221.681 114.402C221.411 114.263 221.106 114.203 220.803 114.228C220.062 114.349 219.605 115.111 218.925 115.43C218.539 115.585 218.115 115.618 217.71 115.525C217.305 115.432 216.937 115.217 216.657 114.909C216.385 114.594 216.179 114.228 216.052 113.832C215.925 113.436 215.879 113.018 215.916 112.604V112.604Z" fill="#2F2E41"/>
<path opacity="0.1" d="M228.791 161.586L218.54 182.121H226.228L228.791 161.586Z" fill="black"/>
<path d="M297.5 281.587C297.5 281.641 297.49 281.695 297.469 281.745C297.448 281.795 297.418 281.841 297.379 281.879C297.341 281.918 297.296 281.948 297.245 281.969C297.195 281.99 297.141 282 297.087 282H101.332C101.222 282 101.117 281.956 101.04 281.879C100.963 281.801 100.919 281.696 100.919 281.587C100.919 281.477 100.963 281.372 101.04 281.294C101.117 281.217 101.222 281.173 101.332 281.173H297.087C297.141 281.173 297.195 281.183 297.245 281.204C297.296 281.225 297.341 281.255 297.379 281.294C297.418 281.332 297.448 281.378 297.469 281.428C297.49 281.478 297.5 281.532 297.5 281.587V281.587Z" fill="#CACACA"/>
</g>
<defs>
<clipPath id="clip0_0_1">
<rect width="252" height="245" fill="white" transform="translate(45.5 37)"/>
</clipPath>
</defs>
</svg>
